<svg width="213" height="62" viewBox="0 0 213 62" fill="none" xmlns="http://www.w3.org/2000/svg">
<path fill-rule="evenodd" clip-rule="evenodd" d="M35.3124 48.0461C33.4251 52.0903 27.1432 60.0976 20.3491 59.7741C11.6679 58.6418 9.95874 57.2168 5.79496 53.3676C5.49748 53.0926 5.01919 52.6972 4.64752 52.1544C2.15525 48.5147 2.25715 46.6613 1.72552 44.2305C1.61066 43.7053 1.50805 43.2362 1.41225 42.8529C-1.41864 32.7426 2.62548 11.7132 3.83872 10.5C4.11988 11.3429 4.32391 12.0302 4.5013 12.6277C5.34813 15.4802 5.58809 16.2884 10.7137 22.2279C11.5215 23.1639 13.6869 24.8734 16.4179 27.0293C23.8862 32.925 35.584 42.1596 35.3124 48.0461ZM15.1622 53.3676C21.6328 54.0147 27.2946 51.4804 29.3166 50.1324C29.7211 48.9191 22.8461 40.8309 17.9931 35.9779C14.1108 32.0956 7.4784 29.777 4.64752 29.1029C4.78232 31.5294 5.21369 37.1103 5.86075 40.0221C6.26516 43.2574 8.69165 51.1029 15.1622 53.3676Z" fill="black"/>
<path fill-rule="evenodd" clip-rule="evenodd" d="M35.3124 48.0461C33.4251 52.0903 27.1432 60.0976 20.3491 59.7741C11.6679 58.6418 9.95874 57.2168 5.79496 53.3676C5.49748 53.0926 5.01919 52.6972 4.64752 52.1544C2.15525 48.5147 2.25715 46.6613 1.72552 44.2305C1.61066 43.7053 1.50805 43.2362 1.41225 42.8529C-1.41864 32.7426 2.62548 11.7132 3.83872 10.5C4.11988 11.3429 4.32391 12.0302 4.5013 12.6277C5.34813 15.4802 5.58809 16.2884 10.7137 22.2279C11.5215 23.1639 13.6869 24.8734 16.4179 27.0293C23.8862 32.925 35.584 42.1596 35.3124 48.0461ZM15.1622 53.3676C21.6328 54.0147 27.2946 51.4804 29.3166 50.1324C29.7211 48.9191 22.8461 40.8309 17.9931 35.9779C14.1108 32.0956 7.4784 29.777 4.64752 29.1029C4.78232 31.5294 5.21369 37.1103 5.86075 40.0221C6.26516 43.2574 8.69165 51.1029 15.1622 53.3676Z" stroke="black" stroke-width="0.5"/>
<path d="M29.3166 50.1324C27.2946 51.4804 21.6328 54.0147 15.1622 53.3676C8.69165 51.1029 6.26516 43.2574 5.86075 40.0221C5.21369 37.1103 4.78232 31.5294 4.64752 29.1029C7.4784 29.777 14.1108 32.0956 17.9931 35.9779C22.8461 40.8309 29.7211 48.9191 29.3166 50.1324Z" stroke="black" stroke-width="0.5"/>
<path fill-rule="evenodd" clip-rule="evenodd" d="M43.0046 48.5461C44.8919 52.5903 51.1738 60.5976 57.9679 60.2741C66.6491 59.1418 68.3582 57.7168 72.522 53.8677C72.8195 53.5926 73.2978 53.1972 73.6695 52.6544C76.1617 49.0147 76.0598 47.1613 76.5915 44.7305C76.7063 44.2053 76.8089 43.7362 76.9047 43.3529C79.7356 33.2426 75.6915 12.2132 74.4783 11C74.1971 11.8429 73.9931 12.5302 73.8157 13.1277C72.9689 15.9802 72.7289 16.7884 67.6033 22.7279C66.7955 23.6639 64.6301 25.3734 61.8991 27.5293C54.4307 33.425 42.7329 42.6596 43.0046 48.5461ZM63.1548 53.8677C56.6842 54.5147 51.0224 51.9804 49.0003 50.6324C48.5959 49.4191 55.4709 41.3309 60.3239 36.4779C64.2062 32.5956 70.8386 30.277 73.6695 29.6029C73.5347 32.0294 73.1033 37.6103 72.4562 40.5221C72.0518 43.7574 69.6253 51.6029 63.1548 53.8677Z" fill="black"/>
<path fill-rule="evenodd" clip-rule="evenodd" d="M43.0046 48.5461C44.8919 52.5903 51.1738 60.5976 57.9679 60.2741C66.6491 59.1418 68.3582 57.7168 72.522 53.8677C72.8195 53.5926 73.2978 53.1972 73.6695 52.6544C76.1617 49.0147 76.0598 47.1613 76.5915 44.7305C76.7063 44.2053 76.8089 43.7362 76.9047 43.3529C79.7356 33.2426 75.6915 12.2132 74.4783 11C74.1971 11.8429 73.9931 12.5302 73.8157 13.1277C72.9689 15.9802 72.7289 16.7884 67.6033 22.7279C66.7955 23.6639 64.6301 25.3734 61.8991 27.5293C54.4307 33.425 42.7329 42.6596 43.0046 48.5461ZM63.1548 53.8677C56.6842 54.5147 51.0224 51.9804 49.0003 50.6324C48.5959 49.4191 55.4709 41.3309 60.3239 36.4779C64.2062 32.5956 70.8386 30.277 73.6695 29.6029C73.5347 32.0294 73.1033 37.6103 72.4562 40.5221C72.0518 43.7574 69.6253 51.6029 63.1548 53.8677Z" stroke="black" stroke-width="0.5"/>
<path d="M49.0003 50.6324C51.0224 51.9804 56.6842 54.5147 63.1548 53.8677C69.6253 51.6029 72.0518 43.7574 72.4562 40.5221C73.1033 37.6103 73.5347 32.0294 73.6695 29.6029C70.8386 30.277 64.2062 32.5956 60.3239 36.4779C55.4709 41.3309 48.5959 49.4191 49.0003 50.6324Z" stroke="black" stroke-width="0.5"/>
<path d="M107.616 25.2729C107.616 25.519 107.572 25.7476 107.484 25.9585C107.396 26.1694 107.273 26.354 107.115 26.5122C106.966 26.6616 106.785 26.7803 106.575 26.8682C106.364 26.9561 106.135 27 105.889 27H93.5228C93.2064 27 92.8636 26.9648 92.4945 26.8945C92.1341 26.8154 91.7738 26.6968 91.4134 26.5386C91.0618 26.3804 90.7235 26.1782 90.3983 25.9321C90.0731 25.6772 89.783 25.374 89.5282 25.0225C89.2821 24.6621 89.0843 24.249 88.9349 23.7832C88.7855 23.3086 88.7108 22.7769 88.7108 22.188V12.9067C88.7108 12.5903 88.7459 12.252 88.8162 11.8916C88.8953 11.5225 89.014 11.1621 89.1722 10.8105C89.3304 10.4502 89.5369 10.1074 89.7918 9.78223C90.0467 9.45703 90.3499 9.17139 90.7015 8.92529C91.0618 8.67041 91.4749 8.46826 91.9408 8.31885C92.4066 8.16943 92.9339 8.09473 93.5228 8.09473H107.458V11.5225H93.5228C93.0745 11.5225 92.7318 11.6411 92.4945 11.8784C92.2572 12.1157 92.1385 12.4673 92.1385 12.9331V22.188C92.1385 22.6274 92.2572 22.9702 92.4945 23.2163C92.7406 23.4536 93.0833 23.5723 93.5228 23.5723H104.188V19.2744H95.0653V15.8203H105.889C106.135 15.8203 106.364 15.8687 106.575 15.9653C106.785 16.0532 106.966 16.1763 107.115 16.3345C107.273 16.4927 107.396 16.6772 107.484 16.8882C107.572 17.0903 107.616 17.3101 107.616 17.5474V25.2729ZM126.732 19.2744H115.909V15.8203H126.732V19.2744ZM128.275 27H115.909C115.434 27 114.915 26.9165 114.353 26.7495C113.79 26.5825 113.267 26.3101 112.784 25.9321C112.309 25.5454 111.91 25.0488 111.584 24.4424C111.268 23.8271 111.11 23.0757 111.11 22.188V9.82178C111.11 9.58447 111.154 9.36035 111.242 9.14941C111.329 8.93848 111.448 8.75391 111.597 8.5957C111.756 8.4375 111.94 8.31445 112.151 8.22656C112.362 8.13867 112.591 8.09473 112.837 8.09473H128.275V11.5225H114.537V22.188C114.537 22.6362 114.656 22.979 114.893 23.2163C115.131 23.4536 115.478 23.5723 115.935 23.5723H128.275V27ZM147.14 19.2744H136.317V15.8203H147.14V19.2744ZM148.683 27H136.317C135.842 27 135.324 26.9165 134.761 26.7495C134.199 26.5825 133.676 26.3101 133.192 25.9321C132.718 25.5454 132.318 25.0488 131.993 24.4424C131.676 23.8271 131.518 23.0757 131.518 22.188V9.82178C131.518 9.58447 131.562 9.36035 131.65 9.14941C131.738 8.93848 131.856 8.75391 132.006 8.5957C132.164 8.4375 132.348 8.31445 132.559 8.22656C132.77 8.13867 132.999 8.09473 133.245 8.09473H148.683V11.5225H134.946V22.188C134.946 22.6362 135.064 22.979 135.302 23.2163C135.539 23.4536 135.886 23.5723 136.343 23.5723H148.683V27ZM171.82 27H166.955L159.243 19.2744H156.83V15.8203H159.243L166.955 8.09473H171.82L162.104 17.5474L171.82 27ZM155.459 27H152.032V8.09473H155.459V27ZM92.4154 49.8203H104.452V42.0947H107.88V61H104.452V53.2744H92.4154V61H88.9876V42.0947H92.4154V49.8203ZM127.444 53.2744H116.62V49.8203H127.444V53.2744ZM128.987 61H116.62C116.146 61 115.627 60.9165 115.065 60.7495C114.502 60.5825 113.979 60.3101 113.496 59.9321C113.021 59.5454 112.621 59.0488 112.296 58.4424C111.98 57.8271 111.822 57.0757 111.822 56.188V43.8218C111.822 43.5845 111.866 43.3604 111.953 43.1494C112.041 42.9385 112.16 42.7539 112.309 42.5957C112.468 42.4375 112.652 42.3145 112.863 42.2266C113.074 42.1387 113.303 42.0947 113.549 42.0947H128.987V45.5225H115.249V56.188C115.249 56.6362 115.368 56.979 115.605 57.2163C115.843 57.4536 116.19 57.5723 116.647 57.5723H128.987V61ZM151.201 48.4492C151.201 49.2314 151.104 49.9302 150.911 50.5454C150.718 51.1606 150.454 51.7056 150.12 52.1802C149.795 52.646 149.417 53.0459 148.986 53.3799C148.555 53.7139 148.103 53.9907 147.628 54.2104C147.162 54.4214 146.688 54.5752 146.204 54.6719C145.73 54.7686 145.282 54.8169 144.86 54.8169L152.018 61H146.719L139.573 54.8169H137.108V51.3892H144.86C145.29 51.354 145.681 51.2661 146.033 51.1255C146.393 50.9761 146.701 50.7783 146.956 50.5322C147.22 50.2861 147.422 49.9917 147.562 49.6489C147.703 49.2974 147.773 48.8975 147.773 48.4492V46.2871C147.773 46.0938 147.747 45.9487 147.694 45.8521C147.65 45.7466 147.589 45.6719 147.51 45.6279C147.439 45.5752 147.36 45.5444 147.272 45.5356C147.193 45.5269 147.118 45.5225 147.048 45.5225H135.737V61H132.309V43.8218C132.309 43.5845 132.353 43.3604 132.441 43.1494C132.529 42.9385 132.647 42.7539 132.797 42.5957C132.955 42.4375 133.139 42.3145 133.35 42.2266C133.561 42.1387 133.79 42.0947 134.036 42.0947H147.048C147.813 42.0947 148.459 42.2354 148.986 42.5166C149.514 42.7891 149.94 43.1362 150.265 43.5581C150.599 43.9712 150.836 44.4194 150.977 44.9028C151.126 45.3862 151.201 45.8389 151.201 46.2607V48.4492ZM174.483 53.3535C174.483 54.5049 174.285 55.564 173.89 56.5308C173.494 57.4976 172.945 58.3325 172.242 59.0356C171.539 59.7388 170.704 60.2881 169.737 60.6836C168.779 61.0703 167.733 61.2637 166.599 61.2637H161.959C160.825 61.2637 159.775 61.0703 158.808 60.6836C157.841 60.2881 157.006 59.7388 156.303 59.0356C155.6 58.3325 155.046 57.4976 154.642 56.5308C154.246 55.564 154.049 54.5049 154.049 53.3535V49.7412C154.049 48.5986 154.246 47.5439 154.642 46.5771C155.046 45.6016 155.6 44.7666 156.303 44.0723C157.006 43.3691 157.841 42.8198 158.808 42.4243C159.775 42.0288 160.825 41.8311 161.959 41.8311H166.599C167.733 41.8311 168.779 42.0288 169.737 42.4243C170.704 42.8198 171.539 43.3691 172.242 44.0723C172.945 44.7666 173.494 45.6016 173.89 46.5771C174.285 47.5439 174.483 48.5986 174.483 49.7412V53.3535ZM171.055 49.7412C171.055 49.0645 170.946 48.4536 170.726 47.9087C170.515 47.355 170.212 46.8848 169.816 46.498C169.43 46.1025 168.959 45.7993 168.406 45.5884C167.861 45.3687 167.259 45.2588 166.599 45.2588H161.959C161.291 45.2588 160.68 45.3687 160.126 45.5884C159.581 45.7993 159.111 46.1025 158.716 46.498C158.32 46.8848 158.013 47.355 157.793 47.9087C157.582 48.4536 157.476 49.0645 157.476 49.7412V53.3535C157.476 54.0303 157.582 54.6455 157.793 55.1992C158.013 55.7441 158.32 56.2144 158.716 56.6099C159.111 56.9966 159.581 57.2998 160.126 57.5195C160.68 57.7305 161.291 57.8359 161.959 57.8359H166.573C167.241 57.8359 167.847 57.7305 168.392 57.5195C168.946 57.2998 169.421 56.9966 169.816 56.6099C170.212 56.2144 170.515 55.7441 170.726 55.1992C170.946 54.6455 171.055 54.0303 171.055 53.3535V49.7412Z" fill="black"/>
</svg>
