<svg width="172" height="62" viewBox="0 0 172 62" fill="none" xmlns="http://www.w3.org/2000/svg">
<path fill-rule="evenodd" clip-rule="evenodd" d="M35.3124 48.0461C33.4251 52.0903 27.1432 60.0976 20.3491 59.7741C11.6679 58.6418 9.95874 57.2168 5.79496 53.3676C5.49748 53.0926 5.01919 52.6972 4.64752 52.1544C2.15525 48.5147 2.25715 46.6613 1.72552 44.2305C1.61066 43.7053 1.50805 43.2362 1.41225 42.8529C-1.41864 32.7426 2.62548 11.7132 3.83872 10.5C4.11988 11.3429 4.32391 12.0302 4.5013 12.6277C5.34813 15.4802 5.58809 16.2884 10.7137 22.2279C11.5215 23.1639 13.6869 24.8734 16.4179 27.0293C23.8862 32.925 35.584 42.1596 35.3124 48.0461ZM15.1622 53.3676C21.6328 54.0147 27.2946 51.4804 29.3166 50.1324C29.7211 48.9191 22.8461 40.8309 17.9931 35.9779C14.1108 32.0956 7.4784 29.777 4.64752 29.1029C4.78232 31.5294 5.21369 37.1103 5.86075 40.0221C6.26516 43.2574 8.69165 51.1029 15.1622 53.3676Z" fill="white"/>
<path fill-rule="evenodd" clip-rule="evenodd" d="M35.3124 48.0461C33.4251 52.0903 27.1432 60.0976 20.3491 59.7741C11.6679 58.6418 9.95874 57.2168 5.79496 53.3676C5.49748 53.0926 5.01919 52.6972 4.64752 52.1544C2.15525 48.5147 2.25715 46.6613 1.72552 44.2305C1.61066 43.7053 1.50805 43.2362 1.41225 42.8529C-1.41864 32.7426 2.62548 11.7132 3.83872 10.5C4.11988 11.3429 4.32391 12.0302 4.5013 12.6277C5.34813 15.4802 5.58809 16.2884 10.7137 22.2279C11.5215 23.1639 13.6869 24.8734 16.4179 27.0293C23.8862 32.925 35.584 42.1596 35.3124 48.0461ZM15.1622 53.3676C21.6328 54.0147 27.2946 51.4804 29.3166 50.1324C29.7211 48.9191 22.8461 40.8309 17.9931 35.9779C14.1108 32.0956 7.4784 29.777 4.64752 29.1029C4.78232 31.5294 5.21369 37.1103 5.86075 40.0221C6.26516 43.2574 8.69165 51.1029 15.1622 53.3676Z" stroke="white" stroke-width="0.5"/>
<path d="M29.3166 50.1324C27.2946 51.4804 21.6328 54.0147 15.1622 53.3676C8.69165 51.1029 6.26516 43.2574 5.86075 40.0221C5.21369 37.1103 4.78232 31.5294 4.64752 29.1029C7.4784 29.777 14.1108 32.0956 17.9931 35.9779C22.8461 40.8309 29.7211 48.9191 29.3166 50.1324Z" stroke="white" stroke-width="0.5"/>
<path fill-rule="evenodd" clip-rule="evenodd" d="M43.0046 48.5461C44.8919 52.5903 51.1738 60.5976 57.9679 60.2741C66.6491 59.1418 68.3582 57.7168 72.522 53.8677C72.8195 53.5926 73.2978 53.1972 73.6695 52.6544C76.1617 49.0147 76.0598 47.1613 76.5915 44.7305C76.7063 44.2053 76.8089 43.7362 76.9047 43.3529C79.7356 33.2426 75.6915 12.2132 74.4783 11C74.1971 11.8429 73.9931 12.5302 73.8157 13.1277C72.9689 15.9802 72.7289 16.7884 67.6033 22.7279C66.7955 23.6639 64.6301 25.3734 61.8991 27.5293C54.4307 33.425 42.7329 42.6596 43.0046 48.5461ZM63.1548 53.8677C56.6842 54.5147 51.0224 51.9804 49.0003 50.6324C48.5959 49.4191 55.4709 41.3309 60.3239 36.4779C64.2062 32.5956 70.8386 30.277 73.6695 29.6029C73.5347 32.0294 73.1033 37.6103 72.4562 40.5221C72.0518 43.7574 69.6253 51.6029 63.1548 53.8677Z" fill="white"/>
<path fill-rule="evenodd" clip-rule="evenodd" d="M43.0046 48.5461C44.8919 52.5903 51.1738 60.5976 57.9679 60.2741C66.6491 59.1418 68.3582 57.7168 72.522 53.8677C72.8195 53.5926 73.2978 53.1972 73.6695 52.6544C76.1617 49.0147 76.0598 47.1613 76.5915 44.7305C76.7063 44.2053 76.8089 43.7362 76.9047 43.3529C79.7356 33.2426 75.6915 12.2132 74.4783 11C74.1971 11.8429 73.9931 12.5302 73.8157 13.1277C72.9689 15.9802 72.7289 16.7884 67.6033 22.7279C66.7955 23.6639 64.6301 25.3734 61.8991 27.5293C54.4307 33.425 42.7329 42.6596 43.0046 48.5461ZM63.1548 53.8677C56.6842 54.5147 51.0224 51.9804 49.0003 50.6324C48.5959 49.4191 55.4709 41.3309 60.3239 36.4779C64.2062 32.5956 70.8386 30.277 73.6695 29.6029C73.5347 32.0294 73.1033 37.6103 72.4562 40.5221C72.0518 43.7574 69.6253 51.6029 63.1548 53.8677Z" stroke="white" stroke-width="0.5"/>
<path d="M49.0003 50.6324C51.0224 51.9804 56.6842 54.5147 63.1548 53.8677C69.6253 51.6029 72.0518 43.7574 72.4562 40.5221C73.1033 37.6103 73.5347 32.0294 73.6695 29.6029C70.8386 30.277 64.2062 32.5956 60.3239 36.4779C55.4709 41.3309 48.5959 49.4191 49.0003 50.6324Z" stroke="white" stroke-width="0.5"/>
<path d="M103.645 25.2729C103.645 25.519 103.602 25.7476 103.514 25.9585C103.426 26.1694 103.303 26.354 103.144 26.5122C102.995 26.6616 102.815 26.7803 102.604 26.8682C102.393 26.9561 102.164 27 101.918 27H89.5522C89.2358 27 88.893 26.9648 88.5239 26.8945C88.1635 26.8154 87.8032 26.6968 87.4428 26.5386C87.0912 26.3804 86.7529 26.1782 86.4277 25.9321C86.1025 25.6772 85.8124 25.374 85.5576 25.0225C85.3115 24.6621 85.1137 24.249 84.9643 23.7832C84.8149 23.3086 84.7402 22.7769 84.7402 22.188V12.9067C84.7402 12.5903 84.7753 12.252 84.8456 11.8916C84.9247 11.5225 85.0434 11.1621 85.2016 10.8105C85.3598 10.4502 85.5663 10.1074 85.8212 9.78223C86.0761 9.45703 86.3793 9.17139 86.7309 8.92529C87.0912 8.67041 87.5043 8.46826 87.9702 8.31885C88.436 8.16943 88.9633 8.09473 89.5522 8.09473H103.487V11.5225H89.5522C89.1039 11.5225 88.7612 11.6411 88.5239 11.8784C88.2866 12.1157 88.1679 12.4673 88.1679 12.9331V22.188C88.1679 22.6274 88.2866 22.9702 88.5239 23.2163C88.77 23.4536 89.1127 23.5723 89.5522 23.5723H100.218V19.2744H91.0947V15.8203H101.918C102.164 15.8203 102.393 15.8687 102.604 15.9653C102.815 16.0532 102.995 16.1763 103.144 16.3345C103.303 16.4927 103.426 16.6772 103.514 16.8882C103.602 17.0903 103.645 17.3101 103.645 17.5474V25.2729ZM122.762 19.2744H111.938V15.8203H122.762V19.2744ZM124.304 27H111.938C111.463 27 110.945 26.9165 110.382 26.7495C109.82 26.5825 109.297 26.3101 108.813 25.9321C108.339 25.5454 107.939 25.0488 107.614 24.4424C107.297 23.8271 107.139 23.0757 107.139 22.188V9.82178C107.139 9.58447 107.183 9.36035 107.271 9.14941C107.359 8.93848 107.477 8.75391 107.627 8.5957C107.785 8.4375 107.97 8.31445 108.181 8.22656C108.392 8.13867 108.62 8.09473 108.866 8.09473H124.304V11.5225H110.567V22.188C110.567 22.6362 110.685 22.979 110.923 23.2163C111.16 23.4536 111.507 23.5723 111.964 23.5723H124.304V27ZM143.17 19.2744H132.346V15.8203H143.17V19.2744ZM144.712 27H132.346C131.872 27 131.353 26.9165 130.79 26.7495C130.228 26.5825 129.705 26.3101 129.222 25.9321C128.747 25.5454 128.347 25.0488 128.022 24.4424C127.706 23.8271 127.547 23.0757 127.547 22.188V9.82178C127.547 9.58447 127.591 9.36035 127.679 9.14941C127.767 8.93848 127.886 8.75391 128.035 8.5957C128.193 8.4375 128.378 8.31445 128.589 8.22656C128.8 8.13867 129.028 8.09473 129.274 8.09473H144.712V11.5225H130.975V22.188C130.975 22.6362 131.094 22.979 131.331 23.2163C131.568 23.4536 131.915 23.5723 132.372 23.5723H144.712V27ZM167.85 27H162.985L155.272 19.2744H152.86V15.8203H155.272L162.985 8.09473H167.85L158.133 17.5474L167.85 27ZM151.489 27H148.061V8.09473H151.489V27ZM88.4448 49.8203H100.481V42.0947H103.909V61H100.481V53.2744H88.4448V61H85.017V42.0947H88.4448V49.8203ZM123.474 53.2744H112.65V49.8203H123.474V53.2744ZM125.016 61H112.65C112.175 61 111.657 60.9165 111.094 60.7495C110.532 60.5825 110.009 60.3101 109.525 59.9321C109.051 59.5454 108.651 59.0488 108.326 58.4424C108.009 57.8271 107.851 57.0757 107.851 56.188V43.8218C107.851 43.5845 107.895 43.3604 107.983 43.1494C108.071 42.9385 108.189 42.7539 108.339 42.5957C108.497 42.4375 108.682 42.3145 108.893 42.2266C109.103 42.1387 109.332 42.0947 109.578 42.0947H125.016V45.5225H111.279V56.188C111.279 56.6362 111.397 56.979 111.635 57.2163C111.872 57.4536 112.219 57.5723 112.676 57.5723H125.016V61ZM147.23 48.4492C147.23 49.2314 147.134 49.9302 146.94 50.5454C146.747 51.1606 146.483 51.7056 146.149 52.1802C145.824 52.646 145.446 53.0459 145.016 53.3799C144.585 53.7139 144.132 53.9907 143.658 54.2104C143.192 54.4214 142.717 54.5752 142.234 54.6719C141.759 54.7686 141.311 54.8169 140.889 54.8169L148.048 61H142.748L135.602 54.8169H133.137V51.3892H140.889C141.32 51.354 141.711 51.2661 142.062 51.1255C142.423 50.9761 142.73 50.7783 142.985 50.5322C143.249 50.2861 143.451 49.9917 143.592 49.6489C143.732 49.2974 143.803 48.8975 143.803 48.4492V46.2871C143.803 46.0938 143.776 45.9487 143.724 45.8521C143.68 45.7466 143.618 45.6719 143.539 45.6279C143.469 45.5752 143.39 45.5444 143.302 45.5356C143.223 45.5269 143.148 45.5225 143.078 45.5225H131.766V61H128.338V43.8218C128.338 43.5845 128.382 43.3604 128.47 43.1494C128.558 42.9385 128.677 42.7539 128.826 42.5957C128.984 42.4375 129.169 42.3145 129.38 42.2266C129.591 42.1387 129.819 42.0947 130.065 42.0947H143.078C143.842 42.0947 144.488 42.2354 145.016 42.5166C145.543 42.7891 145.969 43.1362 146.294 43.5581C146.628 43.9712 146.866 44.4194 147.006 44.9028C147.156 45.3862 147.23 45.8389 147.23 46.2607V48.4492ZM170.513 53.3535C170.513 54.5049 170.315 55.564 169.919 56.5308C169.524 57.4976 168.975 58.3325 168.271 59.0356C167.568 59.7388 166.733 60.2881 165.767 60.6836C164.809 61.0703 163.763 61.2637 162.629 61.2637H157.988C156.854 61.2637 155.804 61.0703 154.837 60.6836C153.871 60.2881 153.036 59.7388 152.332 59.0356C151.629 58.3325 151.076 57.4976 150.671 56.5308C150.276 55.564 150.078 54.5049 150.078 53.3535V49.7412C150.078 48.5986 150.276 47.5439 150.671 46.5771C151.076 45.6016 151.629 44.7666 152.332 44.0723C153.036 43.3691 153.871 42.8198 154.837 42.4243C155.804 42.0288 156.854 41.8311 157.988 41.8311H162.629C163.763 41.8311 164.809 42.0288 165.767 42.4243C166.733 42.8198 167.568 43.3691 168.271 44.0723C168.975 44.7666 169.524 45.6016 169.919 46.5771C170.315 47.5439 170.513 48.5986 170.513 49.7412V53.3535ZM167.085 49.7412C167.085 49.0645 166.975 48.4536 166.755 47.9087C166.544 47.355 166.241 46.8848 165.846 46.498C165.459 46.1025 164.989 45.7993 164.435 45.5884C163.89 45.3687 163.288 45.2588 162.629 45.2588H157.988C157.32 45.2588 156.709 45.3687 156.156 45.5884C155.611 45.7993 155.141 46.1025 154.745 46.498C154.35 46.8848 154.042 47.355 153.822 47.9087C153.611 48.4536 153.506 49.0645 153.506 49.7412V53.3535C153.506 54.0303 153.611 54.6455 153.822 55.1992C154.042 55.7441 154.35 56.2144 154.745 56.6099C155.141 56.9966 155.611 57.2998 156.156 57.5195C156.709 57.7305 157.32 57.8359 157.988 57.8359H162.602C163.27 57.8359 163.877 57.7305 164.422 57.5195C164.976 57.2998 165.45 56.9966 165.846 56.6099C166.241 56.2144 166.544 55.7441 166.755 55.1992C166.975 54.6455 167.085 54.0303 167.085 53.3535V49.7412Z" fill="white"/>
</svg>
