<svg width="270" height="75" viewBox="0 0 270 75" fill="none" xmlns="http://www.w3.org/2000/svg">
<g filter="url(#filter0_dd_2_31)">
<path d="M135.646 25.2729C135.646 25.519 135.602 25.7476 135.514 25.9585C135.426 26.1694 135.303 26.354 135.145 26.5122C134.995 26.6616 134.815 26.7803 134.604 26.8682C134.393 26.9561 134.165 27 133.918 27H121.552C121.236 27 120.893 26.9648 120.524 26.8945C120.164 26.8154 119.803 26.6968 119.443 26.5386C119.091 26.3804 118.753 26.1782 118.428 25.9321C118.103 25.6772 117.812 25.374 117.558 25.0225C117.312 24.6621 117.114 24.249 116.964 23.7832C116.815 23.3086 116.74 22.7769 116.74 22.188V12.9067C116.74 12.5903 116.775 12.252 116.846 11.8916C116.925 11.5225 117.043 11.1621 117.202 10.8105C117.36 10.4502 117.566 10.1074 117.821 9.78223C118.076 9.45703 118.379 9.17139 118.731 8.92529C119.091 8.67041 119.504 8.46826 119.97 8.31885C120.436 8.16943 120.963 8.09473 121.552 8.09473H135.487V11.5225H121.552C121.104 11.5225 120.761 11.6411 120.524 11.8784C120.287 12.1157 120.168 12.4673 120.168 12.9331V22.188C120.168 22.6274 120.287 22.9702 120.524 23.2163C120.77 23.4536 121.113 23.5723 121.552 23.5723H132.218V19.2744H123.095V15.8203H133.918C134.165 15.8203 134.393 15.8687 134.604 15.9653C134.815 16.0532 134.995 16.1763 135.145 16.3345C135.303 16.4927 135.426 16.6772 135.514 16.8882C135.602 17.0903 135.646 17.3101 135.646 17.5474V25.2729ZM154.762 19.2744H143.938V15.8203H154.762V19.2744ZM156.304 27H143.938C143.463 27 142.945 26.9165 142.382 26.7495C141.82 26.5825 141.297 26.3101 140.813 25.9321C140.339 25.5454 139.939 25.0488 139.614 24.4424C139.297 23.8271 139.139 23.0757 139.139 22.188V9.82178C139.139 9.58447 139.183 9.36035 139.271 9.14941C139.359 8.93848 139.478 8.75391 139.627 8.5957C139.785 8.4375 139.97 8.31445 140.181 8.22656C140.392 8.13867 140.62 8.09473 140.866 8.09473H156.304V11.5225H142.567V22.188C142.567 22.6362 142.686 22.979 142.923 23.2163C143.16 23.4536 143.507 23.5723 143.964 23.5723H156.304V27ZM175.17 19.2744H164.346V15.8203H175.17V19.2744ZM176.712 27H164.346C163.872 27 163.353 26.9165 162.791 26.7495C162.228 26.5825 161.705 26.3101 161.222 25.9321C160.747 25.5454 160.347 25.0488 160.022 24.4424C159.706 23.8271 159.547 23.0757 159.547 22.188V9.82178C159.547 9.58447 159.591 9.36035 159.679 9.14941C159.767 8.93848 159.886 8.75391 160.035 8.5957C160.193 8.4375 160.378 8.31445 160.589 8.22656C160.8 8.13867 161.028 8.09473 161.274 8.09473H176.712V11.5225H162.975V22.188C162.975 22.6362 163.094 22.979 163.331 23.2163C163.568 23.4536 163.916 23.5723 164.373 23.5723H176.712V27ZM199.85 27H194.985L187.272 19.2744H184.86V15.8203H187.272L194.985 8.09473H199.85L190.133 17.5474L199.85 27ZM183.489 27H180.061V8.09473H183.489V27ZM120.445 49.8203H132.481V42.0947H135.909V61H132.481V53.2744H120.445V61H117.017V42.0947H120.445V49.8203ZM155.474 53.2744H144.65V49.8203H155.474V53.2744ZM157.016 61H144.65C144.175 61 143.657 60.9165 143.094 60.7495C142.532 60.5825 142.009 60.3101 141.525 59.9321C141.051 59.5454 140.651 59.0488 140.326 58.4424C140.009 57.8271 139.851 57.0757 139.851 56.188V43.8218C139.851 43.5845 139.895 43.3604 139.983 43.1494C140.071 42.9385 140.189 42.7539 140.339 42.5957C140.497 42.4375 140.682 42.3145 140.893 42.2266C141.104 42.1387 141.332 42.0947 141.578 42.0947H157.016V45.5225H143.279V56.188C143.279 56.6362 143.397 56.979 143.635 57.2163C143.872 57.4536 144.219 57.5723 144.676 57.5723H157.016V61ZM179.23 48.4492C179.23 49.2314 179.134 49.9302 178.94 50.5454C178.747 51.1606 178.483 51.7056 178.149 52.1802C177.824 52.646 177.446 53.0459 177.016 53.3799C176.585 53.7139 176.132 53.9907 175.658 54.2104C175.192 54.4214 174.717 54.5752 174.234 54.6719C173.759 54.7686 173.311 54.8169 172.889 54.8169L180.048 61H174.748L167.603 54.8169H165.137V51.3892H172.889C173.32 51.354 173.711 51.2661 174.062 51.1255C174.423 50.9761 174.73 50.7783 174.985 50.5322C175.249 50.2861 175.451 49.9917 175.592 49.6489C175.732 49.2974 175.803 48.8975 175.803 48.4492V46.2871C175.803 46.0938 175.776 45.9487 175.724 45.8521C175.68 45.7466 175.618 45.6719 175.539 45.6279C175.469 45.5752 175.39 45.5444 175.302 45.5356C175.223 45.5269 175.148 45.5225 175.078 45.5225H163.766V61H160.338V43.8218C160.338 43.5845 160.382 43.3604 160.47 43.1494C160.558 42.9385 160.677 42.7539 160.826 42.5957C160.984 42.4375 161.169 42.3145 161.38 42.2266C161.591 42.1387 161.819 42.0947 162.065 42.0947H175.078C175.842 42.0947 176.488 42.2354 177.016 42.5166C177.543 42.7891 177.969 43.1362 178.294 43.5581C178.628 43.9712 178.866 44.4194 179.006 44.9028C179.156 45.3862 179.23 45.8389 179.23 46.2607V48.4492ZM202.513 53.3535C202.513 54.5049 202.315 55.564 201.919 56.5308C201.524 57.4976 200.975 58.3325 200.271 59.0356C199.568 59.7388 198.733 60.2881 197.767 60.6836C196.809 61.0703 195.763 61.2637 194.629 61.2637H189.988C188.854 61.2637 187.804 61.0703 186.837 60.6836C185.871 60.2881 185.036 59.7388 184.333 59.0356C183.629 58.3325 183.076 57.4976 182.671 56.5308C182.276 55.564 182.078 54.5049 182.078 53.3535V49.7412C182.078 48.5986 182.276 47.5439 182.671 46.5771C183.076 45.6016 183.629 44.7666 184.333 44.0723C185.036 43.3691 185.871 42.8198 186.837 42.4243C187.804 42.0288 188.854 41.8311 189.988 41.8311H194.629C195.763 41.8311 196.809 42.0288 197.767 42.4243C198.733 42.8198 199.568 43.3691 200.271 44.0723C200.975 44.7666 201.524 45.6016 201.919 46.5771C202.315 47.5439 202.513 48.5986 202.513 49.7412V53.3535ZM199.085 49.7412C199.085 49.0645 198.975 48.4536 198.755 47.9087C198.544 47.355 198.241 46.8848 197.846 46.498C197.459 46.1025 196.989 45.7993 196.435 45.5884C195.89 45.3687 195.288 45.2588 194.629 45.2588H189.988C189.32 45.2588 188.709 45.3687 188.156 45.5884C187.611 45.7993 187.141 46.1025 186.745 46.498C186.35 46.8848 186.042 47.355 185.822 47.9087C185.611 48.4536 185.506 49.0645 185.506 49.7412V53.3535C185.506 54.0303 185.611 54.6455 185.822 55.1992C186.042 55.7441 186.35 56.2144 186.745 56.6099C187.141 56.9966 187.611 57.2998 188.156 57.5195C188.709 57.7305 189.32 57.8359 189.988 57.8359H194.603C195.271 57.8359 195.877 57.7305 196.422 57.5195C196.976 57.2998 197.45 56.9966 197.846 56.6099C198.241 56.2144 198.544 55.7441 198.755 55.1992C198.975 54.6455 199.085 54.0303 199.085 53.3535V49.7412Z" fill="white"/>
<path fill-rule="evenodd" clip-rule="evenodd" d="M61.0057 51.4207C63.3391 56.4207 71.1058 66.3207 79.5058 65.9207C90.2389 64.5207 92.352 62.7589 97.5 58C97.8678 57.66 98.4591 57.1711 98.9187 56.5C102 52 101.874 49.7085 102.531 46.7032C102.673 46.0539 102.8 45.4738 102.919 45C106.419 32.5 101.419 6.5 99.9186 5C99.571 6.04217 99.3188 6.89187 99.0994 7.63066C98.0524 11.1573 97.7558 12.1566 91.4186 19.5C90.42 20.6572 87.7427 22.7707 84.3661 25.4363C75.1326 32.7255 60.6699 44.1427 61.0057 51.4207ZM85.9186 58C77.9186 58.8 70.9186 55.6667 68.4186 54C67.9186 52.5 76.4186 42.5 82.4186 36.5C87.2186 31.7 95.4187 28.8333 98.9187 28C98.752 31 98.2187 37.9 97.4187 41.5C96.9187 45.5 93.9186 55.2 85.9186 58Z" fill="white"/>
<path fill-rule="evenodd" clip-rule="evenodd" d="M61.0057 51.4207C63.3391 56.4207 71.1058 66.3207 79.5058 65.9207C90.2389 64.5207 92.352 62.7589 97.5 58C97.8678 57.66 98.4591 57.1711 98.9187 56.5C102 52 101.874 49.7085 102.531 46.7032C102.673 46.0539 102.8 45.4738 102.919 45C106.419 32.5 101.419 6.5 99.9186 5C99.571 6.04217 99.3188 6.89187 99.0994 7.63066C98.0524 11.1573 97.7558 12.1566 91.4186 19.5C90.42 20.6572 87.7427 22.7707 84.3661 25.4363C75.1326 32.7255 60.6699 44.1427 61.0057 51.4207ZM85.9186 58C77.9186 58.8 70.9186 55.6667 68.4186 54C67.9186 52.5 76.4186 42.5 82.4186 36.5C87.2186 31.7 95.4187 28.8333 98.9187 28C98.752 31 98.2187 37.9 97.4187 41.5C96.9187 45.5 93.9186 55.2 85.9186 58Z" stroke="white" stroke-width="0.5"/>
<path d="M68.4186 54C70.9186 55.6667 77.9186 58.8 85.9186 58C93.9186 55.2 96.9187 45.5 97.4187 41.5C98.2187 37.9 98.752 31 98.9187 28C95.4187 28.8333 87.2186 31.7 82.4186 36.5C76.4186 42.5 67.9186 52.5 68.4186 54Z" stroke="white" stroke-width="0.5"/>
<path fill-rule="evenodd" clip-rule="evenodd" d="M48.1316 50.4207C45.7983 55.4207 38.0316 65.3207 29.6316 64.9207C18.8984 63.5207 16.7853 61.7589 11.6374 57C11.2696 56.66 10.6783 56.1711 10.2187 55.5C7.13739 51 7.26338 48.7085 6.60609 45.7032C6.46408 45.0539 6.33722 44.4738 6.21877 44C2.71877 31.5 7.71877 5.5 9.21877 4C9.56638 5.04217 9.81864 5.89187 10.038 6.63066C11.0849 10.1573 11.3816 11.1566 17.7188 18.5C18.7174 19.6572 21.3947 21.7707 24.7712 24.4363C34.0048 31.7255 48.4675 43.1427 48.1316 50.4207ZM23.2188 57C31.2188 57.8 38.2187 54.6667 40.7187 53C41.2187 51.5 32.7188 41.5 26.7188 35.5C21.9188 30.7 13.7187 27.8333 10.2187 27C10.3854 30 10.9187 36.9 11.7187 40.5C12.2187 44.5 15.2188 54.2 23.2188 57Z" fill="white"/>
<path fill-rule="evenodd" clip-rule="evenodd" d="M48.1316 50.4207C45.7983 55.4207 38.0316 65.3207 29.6316 64.9207C18.8984 63.5207 16.7853 61.7589 11.6374 57C11.2696 56.66 10.6783 56.1711 10.2187 55.5C7.13739 51 7.26338 48.7085 6.60609 45.7032C6.46408 45.0539 6.33722 44.4738 6.21877 44C2.71877 31.5 7.71877 5.5 9.21877 4C9.56638 5.04217 9.81864 5.89187 10.038 6.63066C11.0849 10.1573 11.3816 11.1566 17.7188 18.5C18.7174 19.6572 21.3947 21.7707 24.7712 24.4363C34.0048 31.7255 48.4675 43.1427 48.1316 50.4207ZM23.2188 57C31.2188 57.8 38.2187 54.6667 40.7187 53C41.2187 51.5 32.7188 41.5 26.7188 35.5C21.9188 30.7 13.7187 27.8333 10.2187 27C10.3854 30 10.9187 36.9 11.7187 40.5C12.2187 44.5 15.2188 54.2 23.2188 57Z" stroke="white" stroke-width="0.5"/>
<path d="M40.7187 53C38.2187 54.6667 31.2188 57.8 23.2188 57C15.2188 54.2 12.2187 44.5 11.7187 40.5C10.9187 36.9 10.3854 30 10.2187 27C13.7187 27.8333 21.9188 30.7 26.7188 35.5C32.7188 41.5 41.2187 51.5 40.7187 53Z" stroke="white" stroke-width="0.5"/>
</g>
<defs>
<filter id="filter0_dd_2_31" x="0.75" y="3.53723" width="205.763" height="70.6453" filterUnits="userSpaceOnUse" color-interpolation-filters="sRGB">
<feFlood flood-opacity="0" result="BackgroundImageFix"/>
<feColorMatrix in="SourceAlpha" type="matrix" values="0 0 0 0 0 0 0 0 0 0 0 0 0 0 0 0 0 0 127 0" result="hardAlpha"/>
<feOffset dy="4"/>
<feGaussianBlur stdDeviation="2"/>
<feComposite in2="hardAlpha" operator="out"/>
<feColorMatrix type="matrix" values="0 0 0 0 0 0 0 0 0 0 0 0 0 0 0 0 0 0 0.25 0"/>
<feBlend mode="normal" in2="BackgroundImageFix" result="effect1_dropShadow_2_31"/>
<feColorMatrix in="SourceAlpha" type="matrix" values="0 0 0 0 0 0 0 0 0 0 0 0 0 0 0 0 0 0 127 0" result="hardAlpha"/>
<feOffset dy="4"/>
<feGaussianBlur stdDeviation="2"/>
<feComposite in2="hardAlpha" operator="out"/>
<feColorMatrix type="matrix" values="0 0 0 0 0 0 0 0 0 0 0 0 0 0 0 0 0 0 0.25 0"/>
<feBlend mode="normal" in2="effect1_dropShadow_2_31" result="effect2_dropShadow_2_31"/>
<feBlend mode="normal" in="SourceGraphic" in2="effect2_dropShadow_2_31" result="shape"/>
</filter>
</defs>
</svg>
