<svg width="50" height="50" viewBox="0 0 50 50" fill="none" xmlns="http://www.w3.org/2000/svg">
<path d="M9.28318 19.0419C10.0854 16.609 11.3878 14.3212 13.2215 12.3682C19.7333 5.39311 30.2876 5.39311 36.7993 12.3682L38.581 14.2877H33.3403C31.4961 14.2877 30.0063 15.8836 30.0063 17.8589C30.0063 19.8343 31.4961 21.4302 33.3403 21.4302H46.6243H46.666C48.5101 21.4302 50 19.8343 50 17.8589V3.57402C50 1.59868 48.5101 0.00279019 46.666 0.00279019C44.8218 0.00279019 43.3319 1.59868 43.3319 3.57402V9.28799L41.5086 7.32381C32.3922 -2.44127 17.6183 -2.44127 8.50177 7.32381C5.95957 10.0469 4.12586 13.2498 3.00063 16.676C2.38591 18.5397 3.30277 20.5708 5.0323 21.2293C6.76183 21.8877 8.66847 20.9056 9.28318 19.0531V19.0419ZM2.39633 28.7177C1.87539 28.8851 1.37529 29.1864 0.968952 29.6328C0.552198 30.0792 0.27089 30.6149 0.125026 31.1952C0.0937696 31.3292 0.062513 31.4742 0.0416753 31.6193C0.0104188 31.809 0 31.9988 0 32.1885V46.4288C0 48.4041 1.48989 50 3.33403 50C5.17816 50 6.66806 48.4041 6.66806 46.4288V40.726L8.50177 42.679C17.6183 52.4329 32.3922 52.4329 41.4982 42.679C44.0404 39.9559 45.8846 36.753 47.0098 33.338C47.6245 31.4742 46.7076 29.4431 44.9781 28.7847C43.2486 28.1262 41.3419 29.1083 40.7272 30.9609C39.925 33.3938 38.6226 35.6816 36.7889 37.6346C30.2771 44.6097 19.7229 44.6097 13.2111 37.6346L13.2007 37.6235L11.419 35.7151H16.6701C18.5143 35.7151 20.0042 34.1192 20.0042 32.1439C20.0042 30.1685 18.5143 28.5726 16.6701 28.5726H3.3757C3.209 28.5726 3.0423 28.5838 2.8756 28.6061C2.7089 28.6284 2.55262 28.6619 2.39633 28.7177Z" fill="#E42759"/>
</svg>
